<svg id="Layer_1" data-name="Layer 1" xmlns="http://www.w3.org/2000/svg" xmlns:xlink="http://www.w3.org/1999/xlink" viewBox="0 0 126 164.21"><defs><style>.cls-1{fill:none;}.cls-2{clip-path:url(#clip-path);}.cls-3,.cls-5{isolation:isolate;}.cls-4{clip-path:url(#clip-path-2);}.cls-5{font-size:46px;font-family:ArialMT, Arial;}</style><clipPath id="clip-path"><path d="M41.6,85.8h77.8v8.1H41.6Zm27.7-9.4L90,61.2l2.4,21.7H68.6ZM40.8,66.5,38.4,56.4l9,6.4H43.3a1.54,1.54,0,0,0-1.5,1.5h0v3.1ZM28,54.7l7,.3,1.9,8Zm44.6-8.1,16,11.9L69.8,72.4Zm-47.4,5-1.4-5.5,8.1,5.8Zm-8.6-7.4,3.7.2,1.1,4.3Zm-2.8-3.1-.6-2.6L17,41.2ZM7.3,35.5l.6-.7,1.6,1.1.5,2Zm66.5,8.4,13.3-10,2.3,21.5Zm1.3-20.6,10.6,8L73.2,40.7Zm1.1-2.8L84.9,14l1.5,14.2Zm.7-13.7h7.2l.4,3.8-8.7,6.6Zm-4.3-3a1.54,1.54,0,0,0-1.5,1.5,1.54,1.54,0,0,0,1.5,1.5H74L65.8,82.9H64.6V64.3a1.54,1.54,0,0,0-1.5-1.5H52.4L8.4,31.5a1.55,1.55,0,0,0-2,.3L4.1,34.6a1.52,1.52,0,0,0,.1,2L41.7,71.3V82.7H40a1.54,1.54,0,0,0-1.5,1.5v11A1.54,1.54,0,0,0,40,96.7h4.6v27.6h9.2V96.8h55.3v27.5h9.2V96.8h2.5a1.54,1.54,0,0,0,1.5-1.5v-11a1.47,1.47,0,0,0-1.5-1.5H95.3L87,6.7h1.4a1.54,1.54,0,0,0,1.5-1.5,1.54,1.54,0,0,0-1.5-1.5H72.6Z"/></clipPath><clipPath id="clip-path-2"><rect class="cls-1" x="66.2" y="109.8" width="28.7" height="54.4"/></clipPath></defs><path d="M41.6,85.8h77.8v8.1H41.6Zm27.7-9.4L90,61.2l2.4,21.7H68.6ZM40.8,66.5,38.4,56.4l9,6.4H43.3a1.54,1.54,0,0,0-1.5,1.5h0v3.1ZM28,54.7l7,.3,1.9,8Zm44.6-8.1,16,11.9L69.8,72.4Zm-47.4,5-1.4-5.5,8.1,5.8Zm-8.6-7.4,3.7.2,1.1,4.3Zm-2.8-3.1-.6-2.6L17,41.2ZM7.3,35.5l.6-.7,1.6,1.1.5,2Zm66.5,8.4,13.3-10,2.3,21.5Zm1.3-20.6,10.6,8L73.2,40.7Zm1.1-2.8L84.9,14l1.5,14.2Zm.7-13.7h7.2l.4,3.8-8.7,6.6Zm-4.3-3a1.54,1.54,0,0,0-1.5,1.5,1.54,1.54,0,0,0,1.5,1.5H74L65.8,82.9H64.6V64.3a1.54,1.54,0,0,0-1.5-1.5H52.4L8.4,31.5a1.55,1.55,0,0,0-2,.3L4.1,34.6a1.52,1.52,0,0,0,.1,2L41.7,71.3V82.7H40a1.54,1.54,0,0,0-1.5,1.5v11A1.54,1.54,0,0,0,40,96.7h4.6v27.6h9.2V96.8h55.3v27.5h9.2V96.8h2.5a1.54,1.54,0,0,0,1.5-1.5v-11a1.47,1.47,0,0,0-1.5-1.5H95.3L87,6.7h1.4a1.54,1.54,0,0,0,1.5-1.5,1.54,1.54,0,0,0-1.5-1.5H72.6Z"/><g class="cls-2"><rect width="126" height="128"/></g><rect x="79" y="5.2" width="3" height="111"/><g class="cls-3"><g class="cls-4"><text class="cls-5" transform="translate(66.23 149.28) scale(1.12 1)">$</text></g></g></svg>